<?xml version="1.0" standalone="no"?>
<!DOCTYPE svg PUBLIC "-//W3C//DTD SVG 20010904//EN"
 "http://www.w3.org/TR/2001/REC-SVG-20010904/DTD/svg10.dtd">
<svg version="1.0" xmlns="http://www.w3.org/2000/svg"
 width="1896.000000pt" height="972.000000pt" viewBox="0 0 1896.000000 972.000000"
 preserveAspectRatio="xMidYMid meet">

<g transform="translate(0.000000,972.000000) scale(0.100000,-0.100000)"
fill="#000000" stroke="none">
<path d="M0 4860 l0 -4860 739 0 c582 0 741 3 745 13 5 9 7 9 12 0 4 -10 1761
-13 8735 -13 l8729 0 0 4860 0 4860 -9480 0 -9480 0 0 -4860z m17415 4658 c35
-19 77 -62 95 -98 18 -35 17 -129 -3 -166 -20 -39 -79 -91 -115 -101 -35 -10
-489 -10 -524 0 -36 10 -95 62 -115 101 -9 17 -16 55 -16 86 0 31 7 69 16 86
21 41 80 92 115 100 15 3 32 7 37 9 6 3 116 3 245 2 198 -2 240 -5 265 -19z
m1187 -7 c63 -44 83 -84 83 -171 0 -68 -3 -81 -27 -113 -50 -65 -84 -82 -164
-82 -80 0 -122 21 -165 83 -20 30 -24 48 -24 112 0 66 4 82 27 117 38 58 97
85 174 81 44 -3 71 -10 96 -27z m-17984 -168 l2 -173 -135 0 -135 0 0 175 0
176 133 -3 132 -3 3 -172z m14512 92 c102 -53 60 -215 -55 -215 -38 0 -83 26
-100 60 -53 103 52 208 155 155z m1312 -17 c2 -15 11 -24 25 -26 14 -2 23 -11
25 -25 2 -12 13 -26 26 -32 14 -6 22 -18 22 -33 0 -29 -48 -79 -84 -88 -38 -9
-74 3 -107 36 -24 23 -29 37 -29 75 0 40 5 52 34 81 41 41 83 46 88 12z m1790
0 c-9 -9 -15 -9 -24 0 -9 9 -7 12 12 12 19 0 21 -3 12 -12z m-17284 -14 c27
-19 28 -34 2 -34 -11 0 -20 5 -20 11 0 16 -41 6 -53 -12 -13 -21 -1 -65 20
-73 9 -4 23 0 32 9 14 13 14 15 -2 15 -9 0 -17 7 -17 15 0 10 10 15 30 15 25
0 30 -4 30 -24 0 -33 -25 -56 -62 -56 -44 0 -68 25 -68 72 0 66 56 99 108 62z
m133 6 c22 -12 26 -59 7 -78 -7 -7 -25 -12 -40 -12 -23 0 -28 -4 -28 -25 0
-16 -6 -25 -15 -25 -12 0 -15 15 -15 75 l0 75 36 0 c19 0 44 -5 55 -10z m130
-65 c22 -59 24 -71 11 -74 -8 -1 -19 4 -24 13 -11 20 -54 21 -62 1 -6 -16 -36
-21 -36 -7 0 11 37 119 45 133 16 25 41 0 66 -66z m197 59 c27 -19 28 -34 2
-34 -11 0 -20 5 -20 10 0 16 -47 11 -54 -6 -22 -56 10 -94 56 -66 34 20 48 9
23 -18 -24 -27 -76 -26 -100 0 -26 29 -23 89 5 112 27 22 58 23 88 2z m182
-59 c0 -60 -3 -75 -15 -75 -12 0 -15 15 -15 75 0 60 3 75 15 75 12 0 15 -15
15 -75z m5072 53 c22 -22 22 -23 3 -27 -10 -2 -21 2 -23 8 -5 16 -37 14 -52
-4 -15 -18 -5 -64 16 -72 9 -3 23 2 32 11 15 15 15 16 -1 16 -9 0 -17 5 -17
10 0 6 14 10 30 10 21 0 30 -5 30 -17 0 -50 -85 -73 -114 -31 -51 73 34 158
96 96z m122 9 c28 -20 17 -59 -21 -77 -18 -8 -33 -23 -33 -32 0 -11 -8 -18
-20 -18 -18 0 -20 7 -20 63 0 35 3 67 7 70 11 12 68 8 87 -6z m101 -4 c4 -10
15 -42 25 -70 19 -52 19 -53 -1 -53 -10 0 -19 7 -19 15 0 9 -9 15 -25 15 -14
0 -28 -7 -31 -15 -6 -16 -34 -21 -34 -7 0 4 9 36 21 70 15 45 26 62 39 62 10
0 21 -8 25 -17z m207 -5 c22 -22 22 -23 3 -27 -10 -2 -21 2 -23 8 -5 16 -37
14 -52 -4 -15 -18 -5 -64 16 -72 8 -3 23 2 33 11 18 16 41 22 41 9 0 -3 -7
-15 -17 -25 -23 -26 -78 -24 -97 4 -51 73 34 158 96 96z m168 -48 c0 -56 -3
-70 -15 -70 -12 0 -15 14 -15 70 0 56 3 70 15 70 12 0 15 -14 15 -70z m378 8
c12 -35 22 -66 22 -70 0 -14 -28 -8 -34 7 -3 8 -17 15 -31 15 -16 0 -25 -6
-25 -15 0 -8 -9 -15 -19 -15 -20 0 -20 1 0 58 10 31 21 63 24 70 2 6 13 12 23
12 13 0 24 -16 40 -62z m807 42 c23 -26 12 -37 -19 -20 -14 7 -32 10 -40 7
-20 -8 -21 -60 -2 -76 14 -12 46 -5 46 10 0 5 7 9 15 9 18 0 18 -5 5 -31 -13
-23 -67 -26 -95 -5 -25 18 -25 78 0 106 23 26 67 26 90 0z m165 -50 c0 -56 -3
-70 -15 -70 -12 0 -15 14 -15 70 0 56 3 70 15 70 12 0 15 -14 15 -70z m310 0
c0 -56 -3 -70 -15 -70 -12 0 -15 14 -15 70 0 56 3 70 15 70 12 0 15 -14 15
-70z m200 61 c0 -5 -6 -12 -12 -14 -10 -4 -9 -8 2 -17 11 -9 12 -13 3 -17 -8
-2 -13 -22 -13 -44 0 -32 -4 -39 -19 -39 -15 0 -20 9 -23 48 -5 59 10 92 40
92 12 0 22 -4 22 -9z m570 -1 c0 -5 -7 -10 -15 -10 -8 0 -15 5 -15 10 0 6 7
10 15 10 8 0 15 -4 15 -10z m5961 -10 c13 -10 19 -19 12 -20 -6 0 -15 5 -18
10 -3 6 -17 10 -31 10 -41 0 -31 -34 16 -53 41 -16 52 -41 28 -65 -24 -24 -88
-9 -88 22 0 5 9 1 19 -8 24 -22 61 -13 61 14 0 12 -10 21 -29 25 -67 14 -66
72 0 84 4 0 17 -8 30 -19z m489 10 c0 -5 -4 -10 -10 -10 -5 0 -10 5 -10 10 0
6 5 10 10 10 6 0 10 -4 10 -10z m-6510 -14 c0 -8 6 -17 13 -20 10 -5 10 -7 0
-12 -15 -7 -18 -64 -3 -64 6 0 10 -4 10 -10 0 -5 -11 -10 -25 -10 -22 0 -25 4
-25 39 0 22 -5 41 -11 43 -8 3 -8 10 2 26 16 25 39 29 39 8z m6096 -11 c9 -8
11 -15 5 -15 -16 0 -14 -87 2 -94 6 -3 3 -5 -8 -3 -16 2 -21 11 -23 42 -2 22
-7 44 -12 49 -5 5 -3 14 3 22 15 17 16 17 33 -1z m-8535 -5 c14 -8 19 -21 19
-56 l0 -45 -42 3 c-38 3 -43 6 -43 28 0 20 6 26 28 28 15 2 27 8 27 13 0 7
-12 8 -30 4 -36 -8 -42 11 -7 25 29 11 26 11 48 0z m160 0 c30 -17 23 -33 -11
-25 -28 6 -30 5 -30 -24 0 -31 21 -43 36 -20 4 7 10 7 16 1 16 -16 0 -32 -32
-32 -39 0 -65 37 -51 73 6 14 18 27 28 30 10 3 19 5 21 6 2 0 12 -4 23 -9z
m499 -10 c31 -31 26 -50 -15 -50 -19 0 -35 -5 -35 -11 0 -7 11 -8 31 -4 24 5
30 4 27 -6 -3 -8 -19 -15 -36 -17 -24 -2 -34 2 -47 21 -25 39 -4 78 48 86 4 0
16 -8 27 -19z m90 6 c0 -8 -7 -16 -15 -20 -9 -3 -15 -19 -15 -41 0 -24 -4 -35
-15 -35 -11 0 -15 12 -15 49 0 51 -1 50 53 60 4 0 7 -5 7 -13z m81 4 c14 -8
19 -21 19 -56 l0 -45 -42 3 c-38 3 -43 6 -43 28 0 20 6 26 28 28 15 2 27 8 27
13 0 7 -12 8 -30 4 -36 -8 -42 11 -7 25 29 11 26 11 48 0z m120 0 c17 0 19 -8
19 -59 0 -39 -5 -63 -14 -70 -18 -15 -78 -10 -84 7 -3 8 6 12 29 10 17 -2 34
2 36 8 2 7 -5 10 -21 7 -34 -7 -61 33 -47 70 10 27 28 38 49 31 8 -2 22 -4 33
-4z m111 -2 c9 -7 18 -22 20 -33 2 -16 -3 -21 -29 -23 -18 -2 -33 -8 -33 -13
0 -7 12 -8 31 -4 24 5 30 4 27 -6 -3 -8 -20 -15 -38 -17 -56 -6 -80 48 -40 88
23 23 40 25 62 8z m289 2 c14 -8 19 -21 19 -56 l0 -45 -42 3 c-38 3 -43 6 -43
28 0 20 6 26 28 28 15 2 27 8 27 14 0 6 -10 8 -24 4 -32 -8 -44 12 -14 23 30
13 26 13 49 1z m160 0 c30 -17 23 -33 -11 -25 -28 6 -30 5 -30 -24 0 -31 21
-43 36 -20 4 7 10 7 16 1 16 -16 0 -32 -32 -32 -39 0 -65 37 -51 73 6 14 18
27 28 30 10 3 19 5 21 6 2 0 12 -4 23 -9z m320 0 c24 -13 28 -100 5 -100 -10
0 -16 13 -18 38 -2 25 -8 37 -18 37 -10 0 -16 -12 -18 -37 -2 -25 -8 -38 -18
-38 -10 0 -14 13 -14 49 0 46 2 50 28 54 15 2 28 5 30 6 2 0 12 -4 23 -9z
m193 -10 c13 -12 10 -58 -4 -75 -15 -18 -61 -20 -78 -3 -7 7 -12 24 -12 39 0
47 59 71 94 39z m86 6 c0 -8 -7 -16 -15 -20 -9 -3 -15 -19 -15 -41 0 -24 -4
-35 -15 -35 -11 0 -15 12 -15 49 0 51 -1 50 53 60 4 0 7 -5 7 -13z m85 4 c4
-7 12 -7 25 0 37 20 60 -7 60 -72 0 -21 -5 -28 -20 -28 -17 0 -20 7 -20 40 0
22 -4 40 -10 40 -5 0 -10 -18 -10 -40 0 -33 -3 -40 -20 -40 -17 0 -20 7 -20
40 0 22 -4 40 -10 40 -5 0 -10 -18 -10 -40 0 -33 -3 -40 -20 -40 -17 0 -20 7
-20 49 0 46 2 50 28 54 15 2 30 5 34 6 4 0 10 -4 13 -9z m166 0 c14 -8 19 -21
19 -56 l0 -45 -42 3 c-38 3 -43 6 -43 28 0 20 6 26 28 28 15 2 27 8 27 14 0 6
-10 8 -24 4 -32 -8 -44 12 -14 23 30 13 26 13 49 1z m239 -10 c38 -38 18 -90
-35 -90 -35 0 -55 20 -55 54 0 20 35 56 55 56 8 0 24 -9 35 -20z m111 10 c24
-13 28 -100 5 -100 -10 0 -16 13 -18 38 -2 25 -8 37 -18 37 -10 0 -16 -12 -18
-37 -2 -25 -8 -38 -18 -38 -10 0 -14 13 -14 49 0 46 2 50 28 54 15 2 28 5 30
6 2 0 12 -4 23 -9z m-8373 -12 c7 -7 12 -32 12 -56 l0 -43 -47 3 c-43 3 -48 5
-48 27 0 18 8 27 33 35 40 14 32 27 -12 19 -28 -6 -30 -5 -17 10 16 20 62 22
79 5z m166 6 c9 -3 16 -12 16 -20 0 -16 -26 -19 -35 -4 -16 27 -42 -11 -29
-44 7 -17 34 -22 34 -6 0 6 7 10 16 10 9 0 14 -7 12 -17 -4 -22 -62 -30 -84
-12 -17 14 -19 70 -2 87 13 13 47 16 72 6z m6004 -21 l10 -28 11 28 c10 26 48
40 38 15 -2 -7 -10 -30 -18 -50 -18 -51 -42 -50 -63 2 -20 50 -20 60 -2 60 8
0 19 -12 24 -27z m1992 -23 c0 -38 -4 -50 -15 -50 -11 0 -15 12 -15 50 0 38 4
50 15 50 11 0 15 -12 15 -50z m6148 38 c7 -7 12 -26 12 -43 0 -36 -15 -55 -45
-55 -30 0 -45 19 -45 55 0 36 15 55 45 55 12 0 26 -5 33 -12z m79 -3 c-11 -8
-17 -26 -17 -54 0 -22 -4 -41 -10 -41 -5 0 -10 24 -10 54 0 51 1 54 27 54 24
0 25 -2 10 -13z m107 -1 c28 -28 20 -44 -24 -44 -43 0 -50 -9 -24 -31 12 -10
20 -10 35 -1 26 16 34 15 19 -3 -15 -18 -51 -20 -68 -3 -7 7 -12 26 -12 43 0
51 41 73 74 39z m116 -39 c0 -30 -4 -55 -10 -55 -5 0 -10 25 -10 55 0 30 5 55
10 55 6 0 10 -25 10 -55z m108 42 c14 -11 17 -97 2 -97 -5 0 -10 20 -10 44 0
28 -5 46 -14 49 -21 8 -36 -14 -36 -55 0 -21 -4 -38 -10 -38 -5 0 -10 24 -10
53 l0 54 33 0 c17 0 38 -4 45 -10z m1616 -18 c-3 -5 -10 -7 -15 -3 -5 3 -7 10
-3 15 3 5 10 7 15 3 5 -3 7 -10 3 -15z m180 -11 c-9 -14 -23 2 -17 18 4 12 8
13 14 3 4 -7 5 -17 3 -21z m-99 13 c3 -5 1 -12 -5 -16 -5 -3 -10 1 -10 9 0 18
6 21 15 7z m-195 -42 c0 -11 -4 -18 -10 -14 -5 3 -7 12 -3 20 7 21 13 19 13
-6z m495 1 c3 -5 -1 -10 -9 -10 -9 0 -16 5 -16 10 0 6 4 10 9 10 6 0 13 -4 16
-10z m-140 -50 c3 -5 1 -10 -4 -10 -6 0 -11 5 -11 10 0 6 2 10 4 10 3 0 8 -4
11 -10z m-349 -92 l29 -33 -32 29 c-31 28 -38 36 -30 36 2 0 16 -15 33 -32z
m934 29 c0 -2 -15 -16 -32 -33 l-33 -29 29 33 c28 30 36 37 36 29z m-489 -87
c271 0 345 3 378 15 23 8 39 10 36 5 -15 -24 -97 -30 -410 -30 -309 0 -395 6
-409 29 -3 5 11 3 32 -5 28 -10 119 -13 373 -14z m-10780 -1531 c7 -14 5 -23
-11 -39 -16 -16 -25 -18 -39 -11 -28 16 -33 39 -11 61 22 22 45 17 61 -11z
m2112 0 c47 -13 102 -60 116 -99 10 -30 10 -30 -28 -30 -30 0 -42 6 -59 30
-40 54 -138 46 -177 -14 -38 -57 -28 -171 18 -215 50 -46 144 -36 172 20 23
43 19 49 -35 49 -49 0 -50 1 -50 30 l0 30 85 0 85 0 0 -59 c0 -95 -57 -160
-149 -169 -75 -7 -118 5 -162 45 -63 57 -83 151 -54 250 17 58 53 98 110 124
46 21 75 23 128 8z m1522 -12 c42 -24 85 -78 85 -108 0 -16 -8 -19 -45 -19
-32 0 -45 4 -45 14 0 25 -50 56 -91 56 -28 0 -47 -8 -71 -29 -29 -26 -33 -35
-36 -98 -5 -87 13 -128 66 -150 49 -21 106 -4 127 37 14 26 21 30 59 30 40 0
43 -2 39 -24 -7 -32 -58 -93 -96 -113 -46 -24 -132 -21 -184 6 -66 33 -97 88
-101 177 -2 40 1 89 8 109 15 46 65 104 105 121 49 21 134 17 180 -9z m585
-197 l0 -220 -40 0 -40 0 0 220 0 220 40 0 40 0 0 -220z m890 0 l0 -220 -40 0
-40 0 0 220 0 220 40 0 40 0 0 -220z m-7149 115 c27 -49 51 -90 54 -90 3 0 27
41 54 90 48 89 48 90 90 93 22 2 41 0 41 -4 0 -4 -33 -63 -72 -133 l-73 -126
3 -82 4 -83 -41 0 -41 0 0 80 0 79 -80 136 -79 136 46 -3 46 -3 48 -90z m1649
65 l0 -30 -95 0 -95 0 0 -65 0 -65 90 0 90 0 0 -35 0 -35 -90 0 -90 0 0 -85 0
-85 -40 0 -40 0 0 215 0 215 135 0 135 0 0 -30z m1500 -185 l0 -215 -35 0
c-31 0 -35 3 -35 25 0 31 -9 31 -39 0 -31 -33 -96 -35 -136 -3 -84 66 -71 249
21 293 17 8 39 15 49 15 24 0 72 -27 78 -45 15 -38 27 -10 27 65 l0 80 35 0
35 0 0 -215z m160 98 c0 -65 3 -162 7 -215 l6 -98 -41 0 -42 0 0 215 0 215 35
0 35 0 0 -117z m1319 83 c38 -36 55 -86 46 -134 -14 -78 -56 -109 -157 -116
-34 -2 -66 -5 -70 -5 -5 -1 -8 -32 -8 -71 l0 -70 -40 0 -40 0 0 108 c0 60 3
157 7 216 l6 108 113 -4 c109 -3 114 -4 143 -32z m382 -181 l76 -210 -35 -3
c-50 -5 -57 1 -72 52 l-13 47 -86 -3 -85 -3 -14 -47 -13 -48 -45 0 c-24 0 -44
2 -44 4 0 4 124 359 139 399 10 26 14 28 63 25 l53 -3 76 -210z m2667 153 c3
-35 6 -38 33 -38 27 0 29 -3 29 -35 0 -32 -2 -35 -30 -35 l-30 0 0 -94 0 -95
27 -3 c22 -2 29 -10 34 -35 l6 -33 -54 0 c-44 0 -58 5 -78 25 -23 23 -25 31
-25 130 0 98 -1 105 -20 105 -16 0 -20 7 -20 35 0 28 4 35 20 35 16 0 20 7 20
33 0 43 6 49 50 45 33 -3 35 -5 38 -40z m-7199 -65 c64 -48 86 -158 48 -231
-29 -53 -71 -74 -144 -70 -67 4 -100 25 -129 80 -20 38 -18 126 4 168 38 73
156 101 221 53z m701 -8 c0 -32 -3 -35 -29 -35 -15 0 -40 -9 -55 -21 -25 -20
-26 -24 -26 -130 l0 -109 -40 0 -40 0 0 160 0 160 40 0 c36 0 40 -2 40 -26 l0
-26 29 31 c18 19 39 31 55 31 23 0 26 -4 26 -35z m720 1 c0 -31 -3 -34 -39
-40 -60 -9 -66 -23 -63 -148 l3 -108 -41 0 -40 0 0 160 0 160 35 0 c31 0 35
-3 35 -25 0 -32 2 -31 38 5 17 17 40 30 51 30 17 0 21 -6 21 -34z m430 16 c48
-24 80 -75 80 -128 l0 -44 -110 0 c-120 0 -128 -4 -89 -54 16 -20 29 -26 59
-26 21 0 43 6 50 15 13 15 47 20 74 9 22 -8 4 -39 -37 -64 -43 -27 -131 -27
-174 0 -73 44 -92 173 -35 249 23 33 78 61 117 61 17 0 46 -8 65 -18z m409
-17 c22 -21 27 -38 33 -108 3 -45 7 -106 7 -134 l1 -53 -40 0 -40 0 0 99 c0
55 -4 111 -10 125 -17 47 -97 47 -118 1 -7 -14 -12 -71 -12 -125 l0 -100 -42
0 -41 0 6 98 c4 53 7 125 7 160 l0 62 35 0 c33 0 35 -2 35 -32 l0 -33 23 26
c12 15 31 32 42 38 30 17 85 5 114 -24z m3295 21 c59 -24 66 -45 66 -188 l0
-128 -40 0 c-34 0 -40 3 -40 20 0 20 -1 20 -31 -2 -54 -40 -144 -25 -168 29
-29 63 7 127 78 138 97 16 106 20 106 45 0 39 -46 50 -85 21 -24 -17 -38 -20
-65 -15 -40 7 -41 11 -17 41 39 50 127 68 196 39z m521 0 c29 -13 75 -66 75
-87 0 -4 -17 -10 -37 -14 -32 -6 -39 -3 -56 19 -14 19 -28 26 -53 26 -45 0
-69 -36 -69 -103 0 -41 4 -53 28 -73 36 -31 53 -30 85 4 23 24 33 28 65 24 46
-5 47 -20 6 -67 -68 -77 -196 -66 -249 20 -30 48 -31 139 -4 186 42 72 128 99
209 65z m225 -94 c0 -121 12 -152 57 -152 54 0 63 22 63 147 l0 113 45 0 45 0
0 -165 0 -165 -40 0 c-38 0 -40 2 -40 29 l0 29 -29 -29 c-24 -23 -38 -29 -73
-29 -92 0 -118 48 -118 215 l0 115 45 0 45 0 0 -108z m654 94 c59 -24 66 -45
66 -188 l0 -128 -40 0 c-34 0 -40 3 -40 20 0 20 -1 20 -31 -2 -54 -40 -144
-25 -168 29 -29 63 7 127 78 138 97 16 106 20 106 45 0 39 -46 50 -85 21 -24
-17 -38 -20 -65 -15 -40 7 -41 11 -17 41 39 50 127 68 196 39z m569 3 c74 -38
110 -124 87 -208 -30 -112 -169 -156 -255 -80 -44 39 -58 78 -53 147 7 98 61
151 156 152 24 0 53 -5 65 -11z m237 -15 l0 -27 26 27 c17 16 38 26 55 26 27
0 29 -3 29 -40 0 -38 -1 -40 -32 -40 -18 0 -38 -4 -45 -8 -22 -14 -33 -63 -33
-153 l0 -89 -40 0 -40 0 0 165 0 165 40 0 c37 0 40 -2 40 -26z m-7548 -95 c4
-122 12 -139 70 -139 55 0 68 28 68 145 l0 105 34 0 c44 0 46 -9 46 -182 l0
-138 -40 0 c-38 0 -40 1 -40 31 l0 31 -35 -31 c-26 -22 -46 -31 -71 -31 -84 0
-104 38 -104 200 l0 120 34 0 34 0 4 -111z m1348 -49 l0 -160 -42 0 -41 0 6
98 c4 53 7 125 7 160 l0 62 35 0 35 0 0 -160z m1457 55 c18 -55 32 -108 33
-117 0 -41 17 -11 55 100 l40 117 38 3 c20 2 37 0 37 -5 0 -13 -125 -345 -143
-379 -19 -38 -60 -56 -114 -52 -39 3 -39 3 -31 36 5 18 13 30 19 26 19 -11 59
6 64 29 5 19 -36 147 -104 320 l-11 28 42 -3 42 -3 33 -100z m-7177 -1650 c0
-37 -4 -65 -10 -65 -5 0 -10 23 -10 51 0 46 -2 50 -20 44 -25 -8 -27 10 -2 24
36 21 42 13 42 -54z m98 53 c7 -7 12 -30 12 -53 0 -46 -13 -65 -45 -65 -32 0
-45 19 -45 65 0 46 13 65 45 65 12 0 26 -5 33 -12z m432 2 c0 -5 -4 -10 -10
-10 -5 0 -10 5 -10 10 0 6 5 10 10 10 6 0 10 -4 10 -10z m-112 -17 c12 -12 13
-18 4 -21 -15 -5 -16 -54 0 -70 9 -9 7 -12 -10 -12 -19 0 -22 5 -22 39 0 22
-5 41 -12 43 -9 3 -8 9 2 21 19 20 18 20 38 0z m-164 -19 c27 -27 20 -44 -19
-44 -19 0 -35 -4 -35 -9 0 -14 27 -20 39 -8 13 13 26 3 16 -12 -3 -6 -20 -11
-36 -11 -22 0 -32 6 -38 23 -21 55 34 101 73 61z m106 -4 c16 -29 13 -80 -5
-80 -11 0 -15 11 -15 40 0 29 -4 40 -15 40 -11 0 -15 -11 -15 -40 0 -29 -4
-40 -15 -40 -11 0 -15 12 -15 48 0 49 0 49 35 50 25 1 38 -4 45 -18z m140 9
c0 -5 -7 -9 -15 -9 -11 0 -15 -11 -15 -40 0 -29 -4 -40 -15 -40 -11 0 -15 12
-15 48 0 47 1 49 30 50 17 0 30 -4 30 -9z m30 -39 c0 -27 -4 -50 -10 -50 -5 0
-10 23 -10 50 0 28 5 50 10 50 6 0 10 -22 10 -50z m94 34 c27 -27 20 -44 -20
-44 -31 0 -35 -2 -24 -15 9 -10 17 -12 30 -5 18 10 33 3 24 -11 -8 -13 -58
-11 -72 3 -26 26 -3 88 33 88 7 0 21 -7 29 -16z m97 0 c11 -13 9 -14 -14 -9
-34 9 -35 -8 -1 -24 31 -14 29 -45 -4 -49 -31 -5 -55 5 -47 18 5 8 11 7 21 -1
11 -9 18 -9 26 -1 8 8 5 14 -14 21 -34 13 -43 28 -28 46 16 19 44 19 61 -1z
m15034 -489 l25 -24 0 -2051 0 -2051 -25 -24 -24 -25 -7951 0 -7951 0 -24 25
-25 24 0 2051 0 2051 25 24 24 25 7951 0 7951 0 24 -25z m-15955 -4825 c0 -93
-4 -150 -10 -150 -6 0 -10 57 -10 150 0 93 4 150 10 150 6 0 10 -57 10 -150z
m2081 70 c21 -12 27 -60 7 -60 -6 0 -3 -6 7 -14 17 -12 18 -18 7 -40 -9 -21
-18 -26 -50 -26 -36 0 -62 14 -62 33 0 5 18 6 40 2 33 -6 40 -4 40 9 0 9 -8
16 -20 16 -27 0 -26 26 1 33 12 3 18 10 14 16 -8 14 -35 14 -35 1 0 -5 -7 -10
-15 -10 -18 0 -20 21 -3 38 15 15 43 15 69 2z m217 -7 c2 -9 -8 -13 -32 -13
-25 0 -36 -5 -36 -15 0 -8 6 -12 14 -9 8 3 24 1 35 -6 24 -12 29 -58 9 -78
-24 -24 -98 -9 -98 20 0 12 34 10 46 -2 8 -8 15 -6 23 4 17 20 4 39 -23 32
-33 -8 -43 5 -38 47 l4 38 46 -3 c25 -2 47 -9 50 -15z m122 3 c6 -8 11 -25 9
-38 -1 -13 2 -31 6 -42 5 -11 4 -26 -2 -35 -12 -20 -79 -27 -99 -10 -19 16
-18 46 4 58 9 6 11 11 5 11 -16 0 -17 42 -1 58 17 17 63 15 78 -2z m-2160 -48
c0 -19 21 -5 35 23 9 17 19 29 21 26 3 -3 -4 -20 -15 -38 -12 -19 -21 -50 -22
-69 l-1 -35 -8 35 c-4 19 -17 53 -29 75 -21 36 -21 38 -2 15 11 -14 21 -28 21
-32z m558 45 c-27 -4 -28 -7 -30 -71 l-2 -67 -3 67 c-4 59 -6 67 -26 71 -12 2
3 4 33 4 30 0 43 -2 28 -4z m379 -100 c-2 -21 -4 -4 -4 37 0 41 2 58 4 38 2
-21 2 -55 0 -75z m204 85 c12 -22 11 -22 -8 -5 -38 33 -83 10 -83 -42 0 -36
21 -53 57 -49 32 3 44 34 16 41 -14 4 -13 5 5 6 30 1 30 -32 0 -53 -30 -21
-44 -20 -68 4 -24 24 -26 77 -3 102 23 26 69 23 84 -4z m141 -3 c9 -21 8 -28
-7 -45 -10 -11 -28 -20 -41 -20 -17 0 -24 -7 -27 -27 -2 -16 -5 5 -6 45 l-1
72 35 0 c28 0 38 -5 47 -25z m98 17 c0 -5 -7 -9 -15 -9 -8 0 -15 4 -15 9 0 4
7 8 15 8 8 0 15 -4 15 -8z m-622 -19 c12 -12 13 -18 4 -21 -16 -5 -16 -69 1
-75 6 -2 9 -8 4 -12 -12 -14 -29 11 -37 56 -7 39 -4 69 7 69 2 0 12 -8 21 -17z
m-607 -13 c13 -8 19 -21 19 -46 0 -27 -5 -37 -25 -46 -21 -9 -29 -9 -42 4 -21
22 -20 68 3 85 21 16 20 16 45 3z m102 -80 c14 0 18 -3 11 -10 -6 -6 -18 -8
-27 -4 -13 5 -17 18 -15 58 l2 51 3 -47 c4 -41 7 -48 26 -48z m47 33 c0 -36
-4 -52 -9 -43 -8 14 -3 100 5 100 2 0 4 -26 4 -57z m50 -13 l-7 -45 -1 60 c-1
37 2 54 7 45 5 -8 5 -35 1 -60z m40 60 c0 -5 -5 -10 -11 -10 -5 0 -7 5 -4 10
3 6 8 10 11 10 2 0 4 -4 4 -10z m278 -6 c26 -18 28 -50 5 -76 -20 -22 -37 -23
-57 -2 -21 20 -20 53 1 76 20 22 23 22 51 2z m201 2 c7 -8 11 -33 8 -58 l-4
-43 -1 47 c-2 50 -14 62 -47 45 -18 -9 -19 -9 -6 6 17 21 35 22 50 3z m476
-16 c-6 -27 -4 -30 20 -30 24 0 26 3 21 33 l-6 32 15 -31 c7 -17 17 -44 20
-60 5 -26 4 -26 -4 -6 -14 31 -77 32 -86 1 -4 -11 -9 -19 -11 -17 -4 5 28 108
34 108 2 0 1 -13 -3 -30z m182 -52 c-2 -18 -4 -6 -4 27 0 33 2 48 4 33 2 -15
2 -42 0 -60z m103 71 c12 -8 11 -9 -6 -4 -13 3 -26 0 -33 -9 -13 -16 -9 -20
32 -30 29 -7 35 -24 15 -44 -17 -17 -43 -15 -58 4 -12 13 -10 14 14 3 19 -9
30 -9 37 -2 15 15 3 33 -20 33 -30 0 -45 25 -26 44 19 19 25 19 45 5z m-789
-48 c-33 -9 -38 -29 -9 -40 15 -6 17 -10 7 -10 -9 -1 -22 6 -29 14 -16 20 3
45 34 44 19 -1 19 -2 -3 -8z m1069 -36 c0 -8 -9 -15 -20 -15 -11 0 -20 7 -20
15 0 8 9 15 20 15 11 0 20 -7 20 -15z"/>
<path d="M16840 9418 c0 -7 14 -27 32 -45 l32 -33 -33 -34 c-23 -24 -32 -40
-27 -52 6 -15 12 -12 46 21 l40 39 40 -39 c34 -33 40 -36 46 -21 5 12 -4 28
-27 52 l-33 34 32 33 c56 58 33 81 -25 25 l-33 -32 -33 32 c-34 33 -57 41 -57
20z"/>
<path d="M434 9478 c-21 -10 -22 -10 -3 -29 25 -25 80 -25 101 0 15 18 14 19
-9 30 -29 13 -61 13 -89 -1z"/>
<path d="M432 9220 c0 -14 2 -19 5 -12 2 6 2 18 0 25 -3 6 -5 1 -5 -13z"/>
<path d="M400 9200 c-9 -6 -10 -10 -3 -10 6 0 15 5 18 10 8 12 4 12 -15 0z"/>
<path d="M15022 9413 c-7 -3 -19 -18 -28 -35 -15 -29 -15 -29 7 -26 15 2 25
13 30 32 9 34 9 35 -9 29z"/>
<path d="M15061 9402 c-18 -34 -14 -52 14 -52 29 0 34 24 11 55 -13 18 -14 18
-25 -3z"/>
<path d="M15116 9392 c9 -38 13 -42 35 -42 18 0 19 2 5 29 -9 16 -22 31 -31
35 -12 4 -14 0 -9 -22z"/>
<path d="M14994 9291 c9 -16 22 -31 31 -35 12 -4 14 0 9 22 -9 38 -13 42 -35
42 -18 0 -19 -2 -5 -29z"/>
<path d="M15050 9302 c0 -10 6 -27 14 -37 13 -18 14 -18 25 3 18 34 14 52 -14
52 -17 0 -25 -5 -25 -18z"/>
<path d="M15127 9313 c-2 -5 -7 -20 -11 -35 -5 -22 -3 -26 9 -22 9 4 22 19 31
35 14 27 13 29 -5 29 -11 0 -22 -3 -24 -7z"/>
<path d="M16365 9385 c-31 -30 -33 -82 -5 -118 38 -48 112 -44 146 8 16 24 16
26 -10 46 -14 11 -26 27 -26 35 0 8 -7 14 -15 14 -8 0 -20 9 -27 20 -17 26
-34 25 -63 -5z m35 -25 c0 -5 -4 -10 -10 -10 -5 0 -10 5 -10 10 0 6 5 10 10
10 6 0 10 -4 10 -10z m-10 -54 c0 -3 -4 -8 -10 -11 -5 -3 -10 -1 -10 4 0 6 5
11 10 11 6 0 10 -2 10 -4z m90 -16 c0 -5 -4 -10 -10 -10 -5 0 -10 5 -10 10 0
6 5 10 10 10 6 0 10 -4 10 -10z m-50 -20 c0 -5 -4 -10 -10 -10 -5 0 -10 5 -10
10 0 6 5 10 10 10 6 0 10 -4 10 -10z"/>
<path d="M1020 9365 c0 -22 4 -26 23 -23 14 2 22 10 22 23 0 13 -8 21 -22 23
-19 3 -23 -1 -23 -23z"/>
<path d="M1157 9351 c-3 -14 0 -21 9 -21 16 0 18 9 5 28 -6 10 -10 9 -14 -7z"/>
<path d="M6730 9369 c0 -25 33 -22 38 4 2 12 -3 17 -17 17 -15 0 -21 -6 -21
-21z"/>
<path d="M6856 9361 c-4 -7 -5 -15 -2 -18 9 -9 19 4 14 18 -4 11 -6 11 -12 0z"/>
<path d="M7590 9356 c0 -9 5 -16 10 -16 6 0 10 4 10 9 0 6 -4 13 -10 16 -5 3
-10 -1 -10 -9z"/>
<path d="M7150 9310 c0 -5 7 -10 15 -10 8 0 15 5 15 10 0 6 -7 10 -15 10 -8 0
-15 -4 -15 -10z"/>
<path d="M7800 9350 c0 -5 9 -10 21 -10 11 0 17 5 14 10 -3 6 -13 10 -21 10
-8 0 -14 -4 -14 -10z"/>
<path d="M7980 9310 c0 -5 7 -10 15 -10 8 0 15 5 15 10 0 6 -7 10 -15 10 -8 0
-15 -4 -15 -10z"/>
<path d="M8090 9336 c0 -29 19 -44 31 -25 13 20 6 43 -14 47 -12 3 -17 -3 -17
-22z"/>
<path d="M8205 9350 c-3 -5 3 -10 14 -10 12 0 21 5 21 10 0 6 -6 10 -14 10 -8
0 -18 -4 -21 -10z"/>
<path d="M8500 9310 c0 -5 7 -10 15 -10 8 0 15 5 15 10 0 6 -7 10 -15 10 -8 0
-15 -4 -15 -10z"/>
<path d="M9154 9345 c-8 -21 3 -48 19 -43 19 7 22 58 2 58 -8 0 -18 -7 -21
-15z"/>
<path d="M9510 9310 c0 -5 7 -10 15 -10 8 0 15 5 15 10 0 6 -7 10 -15 10 -8 0
-15 -4 -15 -10z"/>
<path d="M9736 9345 c-7 -20 3 -45 19 -45 16 0 26 25 19 45 -4 8 -12 15 -19
15 -7 0 -15 -7 -19 -15z"/>
<path d="M1480 9310 c-8 -5 -11 -12 -8 -16 10 -9 38 3 38 16 0 12 -10 13 -30
0z"/>
<path d="M15785 9353 c-20 -19 -16 -52 7 -67 25 -15 53 14 44 47 -8 32 -31 41
-51 20z"/>
<path d="M15977 9358 c-26 -14 -20 -28 13 -28 19 0 30 5 30 14 0 19 -22 26
-43 14z"/>
<path d="M8353 7405 c-36 -15 -43 -31 -43 -96 0 -40 5 -55 25 -74 30 -31 56
-32 92 -1 24 21 28 31 28 79 0 82 -40 118 -102 92z"/>
<path d="M9820 7440 l0 -82 61 4 c70 5 99 28 99 78 0 50 -29 73 -99 78 l-61 4
0 -82z"/>
<path d="M10233 7438 c-12 -46 -24 -91 -28 -100 -6 -16 0 -18 55 -18 52 0 61
3 56 15 -3 9 -16 54 -28 100 -12 47 -25 85 -28 85 -4 0 -16 -37 -27 -82z"/>
<path d="M5743 7410 c-31 -13 -43 -41 -43 -100 0 -41 5 -56 25 -75 43 -44 97
-28 116 34 16 52 4 105 -28 131 -28 22 -37 23 -70 10z"/>
<path d="M7595 7395 c-45 -44 -34 -55 50 -55 61 0 75 3 75 15 0 25 -47 65 -75
65 -14 0 -37 -11 -50 -25z"/>
<path d="M11355 7293 c-11 -2 -30 -6 -42 -9 -30 -6 -49 -40 -32 -60 15 -19 74
-18 93 2 16 15 23 75 9 73 -5 -1 -17 -3 -28 -6z"/>
<path d="M12755 7293 c-11 -2 -30 -6 -42 -9 -30 -6 -49 -40 -32 -60 15 -19 74
-18 93 2 16 15 23 75 9 73 -5 -1 -17 -3 -28 -6z"/>
<path d="M13270 7390 c-31 -31 -28 -123 5 -155 13 -14 33 -25 45 -25 63 0 93
126 43 183 -21 23 -68 22 -93 -3z"/>
<path d="M1747 5754 c-12 -13 -8 -71 7 -83 20 -17 38 10 34 51 -3 31 -25 48
-41 32z"/>
<path d="M1905 5720 c-3 -5 3 -10 14 -10 12 0 21 5 21 10 0 6 -6 10 -14 10 -8
0 -18 -4 -21 -10z"/>
<path d="M2275 5720 c-4 -6 5 -10 20 -10 15 0 24 4 20 10 -3 6 -12 10 -20 10
-8 0 -17 -4 -20 -10z"/>
<path d="M1510 5240 c-20 -20 -20 -33 -20 -2070 0 -2037 0 -2050 20 -2070 20
-20 33 -20 7970 -20 7937 0 7950 0 7970 20 20 20 20 33 20 2070 0 2037 0 2050
-20 2070 -20 20 -33 20 -7970 20 -7937 0 -7950 0 -7970 -20z m207 -307 c-2
-21 -4 -6 -4 32 0 39 2 55 4 38 2 -18 2 -50 0 -70z m111 81 c15 -10 22 -25 22
-46 0 -42 -25 -68 -67 -68 l-33 0 0 65 c0 64 0 65 28 65 15 0 38 -7 50 -16z
m1354 -21 l23 -38 3 38 c2 24 8 37 18 37 11 0 14 -15 14 -65 0 -78 -15 -85
-55 -28 l-25 38 0 -38 c0 -26 -4 -37 -15 -37 -12 0 -15 14 -15 65 0 77 16 86
52 28z m3392 18 c23 -26 2 -39 -24 -16 -27 24 -52 4 -48 -39 2 -25 7 -31 27
-31 13 0 26 6 29 13 2 6 -3 12 -12 12 -9 0 -16 5 -16 10 0 6 14 10 30 10 35 0
40 -22 13 -52 -36 -40 -103 -10 -103 45 0 60 66 90 104 48z m114 7 c29 -29 7
-78 -35 -78 -16 0 -23 -6 -23 -20 0 -11 -4 -20 -10 -20 -6 0 -10 28 -10 65 l0
65 33 0 c18 0 38 -5 45 -12z m109 -56 c19 -52 20 -62 7 -62 -8 0 -17 7 -20 15
-4 8 -17 15 -30 15 -15 0 -24 -6 -24 -15 0 -8 -7 -15 -15 -15 -21 0 -19 9 20
118 11 31 41 5 62 -56z m2777 52 c9 -8 16 -20 16 -25 0 -15 -27 -10 -34 6 -7
19 -21 19 -40 -1 -20 -19 -20 -35 -2 -59 13 -17 17 -18 40 -6 30 17 45 8 26
-14 -22 -26 -82 -16 -98 17 -13 28 -2 75 21 90 20 13 55 9 71 -8z m296 -49 l0
-65 -38 0 c-21 0 -43 5 -50 12 -29 29 1 95 39 85 14 -4 19 0 19 14 0 10 7 19
15 19 12 0 15 -14 15 -65z m40 55 c0 -5 -7 -10 -15 -10 -8 0 -15 5 -15 10 0 6
7 10 15 10 8 0 15 -4 15 -10z m3291 -45 c22 -63 23 -75 4 -75 -8 0 -15 7 -15
15 0 9 -9 15 -24 15 -13 0 -26 -7 -30 -15 -3 -8 -12 -15 -20 -15 -12 0 -10 12
7 65 17 54 25 65 41 63 13 -2 25 -19 37 -53z m229 45 c0 -5 -7 -10 -15 -10 -8
0 -15 5 -15 10 0 6 7 10 15 10 8 0 15 -4 15 -10z m-3462 -17 c12 -12 13 -18 4
-21 -14 -4 -17 -62 -2 -62 6 0 10 -5 10 -11 0 -6 -10 -9 -22 -7 -19 2 -24 11
-29 48 -9 69 5 88 39 53z m3409 1 c12 -11 13 -18 4 -27 -14 -14 -15 -57 -1
-57 6 0 10 -5 10 -11 0 -6 -10 -9 -22 -7 -19 2 -24 11 -29 48 -9 68 5 88 38
54z m-9546 -11 c13 -16 12 -17 -3 -4 -15 11 -21 11 -35 0 -16 -13 -17 -12 -4
4 7 9 17 17 21 17 4 0 14 -8 21 -17z m3210 0 c13 -16 12 -17 -3 -4 -15 11 -21
11 -35 0 -16 -13 -17 -12 -4 4 7 9 17 17 21 17 4 0 14 -8 21 -17z m3260 0 c13
-16 12 -17 -3 -4 -15 11 -21 11 -35 0 -16 -13 -17 -12 -4 4 7 9 17 17 21 17 4
0 14 -8 21 -17z m-6973 -5 c7 -7 12 -29 12 -50 0 -37 -1 -38 -39 -38 -28 0
-41 5 -45 17 -7 18 17 43 41 43 7 0 13 5 13 10 0 6 -11 8 -25 4 -14 -4 -25 -2
-25 4 0 21 49 29 68 10z m165 3 c4 0 7 -21 7 -46 0 -33 -4 -45 -15 -45 -11 0
-15 11 -15 40 0 22 -4 40 -10 40 -5 0 -10 -18 -10 -40 0 -54 -27 -56 -32 -2
-2 20 -7 37 -13 37 -5 0 -11 -17 -13 -37 -2 -25 -8 -38 -18 -38 -10 0 -14 13
-14 49 l0 49 63 -3 c34 -1 65 -3 70 -4z m101 -7 c27 -27 20 -44 -20 -44 -23 0
-33 -4 -28 -11 3 -6 17 -8 31 -4 18 4 24 2 21 -7 -3 -7 -20 -13 -39 -13 -31 0
-34 3 -37 33 -5 55 37 82 72 46z m6066 0 c0 -8 -7 -14 -15 -14 -10 0 -15 -11
-15 -35 0 -24 -5 -35 -15 -35 -11 0 -15 11 -15 43 0 24 2 46 5 49 12 12 55 5
55 -8z m81 6 c10 -6 19 -20 19 -30 0 -16 -7 -20 -30 -20 -16 0 -30 -5 -30 -11
0 -7 11 -8 31 -4 24 5 30 4 27 -6 -6 -18 -55 -24 -74 -8 -20 16 -18 66 4 78
22 13 29 13 53 1z m169 -40 c0 -38 -4 -50 -15 -50 -11 0 -15 11 -15 43 0 24 3
47 7 50 16 17 23 3 23 -43z m151 33 c13 -15 11 -16 -13 -9 -16 3 -28 2 -28 -3
0 -5 12 -12 26 -15 19 -5 25 -12 22 -29 -2 -18 -10 -22 -37 -22 -19 0 -36 6
-39 13 -3 9 3 11 22 6 33 -8 34 3 1 16 -15 6 -25 17 -25 29 0 32 49 42 71 14z
m3247 5 c21 -21 13 -30 -19 -23 -28 6 -30 5 -27 -17 2 -19 8 -22 32 -20 19 2
27 -1 24 -10 -6 -17 -56 -22 -74 -7 -19 15 -18 48 3 71 19 21 44 23 61 6z
m122 -38 c0 -38 -4 -50 -15 -50 -11 0 -15 11 -15 43 0 24 3 47 7 50 16 17 23
3 23 -43z m91 40 c22 -12 26 -59 7 -78 -7 -7 -21 -12 -33 -12 -29 0 -45 19
-45 52 0 39 34 57 71 38z m117 -3 c18 -14 16 -87 -3 -87 -10 0 -15 11 -15 35
0 24 -5 35 -15 35 -10 0 -15 -11 -15 -35 0 -24 -5 -35 -15 -35 -11 0 -15 12
-15 48 0 48 0 49 33 49 17 0 38 -4 45 -10z m86 7 c23 -9 20 -27 -4 -21 -11 3
-23 1 -26 -4 -3 -5 1 -9 8 -9 8 0 23 -6 33 -14 17 -12 17 -16 5 -30 -16 -20
-71 -18 -78 3 -3 10 3 11 28 6 23 -5 30 -4 26 4 -4 6 -13 11 -20 11 -8 0 -20
7 -27 16 -11 14 -10 18 6 30 21 16 27 17 49 8z m-9896 -63 c16 12 16 12 0 -6
-18 -19 -18 -19 -35 0 -17 18 -17 18 0 6 14 -11 20 -11 35 0z m3210 0 c16 12
16 12 0 -6 -18 -19 -18 -19 -35 0 -17 18 -17 18 0 6 14 -11 20 -11 35 0z
m3260 0 c16 12 16 12 0 -6 -18 -19 -18 -19 -35 0 -17 18 -17 18 0 6 14 -11 20
-11 35 0z m3417 -526 c25 -24 25 -27 25 -200 0 -173 0 -176 -25 -200 l-24 -25
-271 0 -271 0 -24 25 c-25 24 -25 27 -25 200 0 173 0 176 25 200 l24 25 271 0
271 0 24 -25z m552 -105 c3 -13 14 -20 29 -20 25 0 31 -9 14 -26 -5 -5 -10
-43 -12 -84 l-3 -75 -80 0 -80 0 -3 75 c-2 41 -7 79 -12 84 -17 17 -11 26 14
26 15 0 26 7 29 20 4 16 14 20 52 20 38 0 48 -4 52 -20z m-12517 -95 c0 -37
-4 -65 -10 -65 -5 0 -10 23 -10 51 0 48 -1 50 -22 43 -23 -7 -23 -6 -4 15 34
38 46 27 46 -44z m1460 50 c7 -9 10 -19 6 -22 -4 -4 -11 -1 -15 6 -10 15 -43
11 -48 -6 -2 -6 12 -16 32 -23 31 -10 36 -16 33 -38 -3 -24 -7 -27 -43 -27
-31 0 -41 4 -43 19 -4 17 -2 17 18 3 24 -16 50 -13 50 7 0 7 -16 18 -35 25
-36 13 -45 37 -23 59 17 17 53 15 68 -3z m800 -50 c0 -37 -4 -65 -10 -65 -5 0
-10 23 -10 51 0 41 -3 50 -15 45 -18 -7 -20 5 -3 22 28 28 38 13 38 -53z
m2541 49 c10 -12 10 -20 1 -35 -8 -13 -9 -19 -1 -19 5 0 9 -12 7 -27 -2 -23
-9 -29 -34 -31 -19 -2 -36 3 -44 12 -10 13 -10 16 3 16 9 0 18 -4 22 -10 8
-13 35 -1 35 15 0 8 -10 17 -22 21 l-23 7 23 10 c12 6 22 14 22 19 0 15 -30
21 -45 8 -12 -10 -15 -10 -15 2 0 8 3 18 7 21 12 13 50 7 64 -9z m149 6 c0 -5
-11 -10 -25 -10 -16 0 -25 -6 -25 -16 0 -8 3 -13 8 -11 4 3 17 1 30 -4 24 -9
30 -47 10 -67 -17 -17 -53 -15 -68 3 -10 12 -10 15 3 15 9 0 19 -5 22 -10 8
-13 35 6 35 25 0 16 -25 26 -45 19 -12 -5 -15 2 -15 30 0 34 1 36 35 36 19 0
35 -4 35 -10z m2860 -35 c0 -25 5 -45 10 -45 6 0 5 -8 -2 -20 -13 -21 -38 -27
-38 -10 0 6 -11 10 -24 10 -37 0 -38 11 -4 63 39 61 58 61 58 2z m-5843 24 c6
-6 9 -28 5 -51 -3 -28 -1 -43 9 -49 10 -7 7 -9 -11 -7 -21 3 -26 9 -31 48 -9
63 2 85 28 59z m-403 -25 c27 -27 20 -44 -19 -44 -19 0 -35 -4 -35 -9 0 -14
27 -20 39 -8 13 13 26 3 16 -12 -3 -6 -20 -11 -36 -11 -22 0 -32 6 -38 23 -21
55 34 101 73 61z m154 3 c18 -12 16 -87 -3 -87 -11 0 -15 11 -15 41 0 52 -24
48 -28 -4 -4 -50 -22 -47 -22 3 0 29 -4 40 -15 40 -11 0 -15 -11 -15 -40 0
-29 -4 -40 -15 -40 -11 0 -15 12 -15 49 l0 48 58 -1 c31 -1 63 -5 70 -9z m100
1 c7 -7 12 -20 12 -30 0 -14 -8 -18 -37 -18 -35 0 -36 -1 -21 -17 13 -13 20
-14 31 -5 15 12 30 5 21 -9 -8 -13 -58 -11 -72 3 -7 7 -12 22 -12 34 0 43 50
70 78 42z m100 -6 c3 -9 -3 -11 -22 -6 -16 4 -26 2 -26 -5 0 -6 6 -11 14 -11
8 0 22 -7 31 -16 12 -12 13 -19 4 -30 -16 -19 -69 -18 -69 1 0 17 16 20 25 5
4 -6 11 -8 16 -5 16 11 10 24 -13 27 -26 3 -37 36 -16 49 18 12 50 7 56 -9z
m150 6 c7 -7 12 -20 12 -30 0 -14 -8 -18 -37 -18 -35 0 -36 -1 -21 -17 13 -13
20 -14 31 -5 15 12 30 5 21 -9 -8 -13 -58 -11 -72 3 -7 7 -12 22 -12 34 0 43
50 70 78 42z m82 2 c0 -4 -7 -10 -15 -14 -9 -3 -15 -19 -15 -41 0 -19 -4 -35
-10 -35 -5 0 -10 22 -10 49 0 45 2 49 25 49 14 0 25 -4 25 -8z m2710 -80 c0
-5 -7 -10 -15 -10 -8 0 -15 5 -15 10 0 6 7 10 15 10 8 0 15 -4 15 -10z m7105
-655 c25 -24 25 -27 25 -200 0 -173 0 -176 -25 -200 l-24 -25 -271 0 -271 0
-24 25 c-25 24 -25 27 -25 200 0 173 0 176 25 200 l24 25 271 0 271 0 24 -25z
m552 -105 c3 -13 14 -20 29 -20 25 0 31 -9 14 -26 -5 -5 -10 -43 -12 -84 l-3
-75 -80 0 -80 0 -3 75 c-2 41 -7 79 -12 84 -17 17 -11 26 14 26 15 0 26 7 29
20 4 16 14 20 52 20 38 0 48 -4 52 -20z m-12488 -49 c8 -15 5 -27 -14 -55 -23
-34 -23 -36 -5 -36 10 0 22 -4 25 -10 4 -6 -12 -10 -39 -10 -25 0 -46 4 -46 8
0 5 14 21 30 37 31 30 40 65 17 65 -7 0 -18 -5 -25 -12 -17 -17 -28 -2 -12 17
17 21 57 19 69 -4z m1431 4 c7 -9 10 -19 6 -22 -4 -4 -11 -1 -15 6 -10 15 -43
11 -48 -6 -2 -6 12 -16 32 -23 31 -10 36 -16 33 -38 -3 -24 -7 -27 -43 -27
-31 0 -41 4 -43 19 -4 17 -2 17 18 3 24 -16 50 -13 50 7 0 7 -16 18 -35 25
-36 13 -45 37 -23 59 17 17 53 15 68 -3z m828 3 c18 -18 15 -33 -14 -67 l-26
-31 26 0 c14 0 26 -4 26 -10 0 -5 -20 -10 -45 -10 -25 0 -45 2 -45 5 0 3 16
23 36 45 35 38 38 60 8 60 -8 0 -14 -4 -14 -10 0 -5 -7 -10 -15 -10 -13 0 -14
4 -5 20 12 22 49 27 68 8z m2513 -4 c10 -12 10 -20 1 -35 -8 -13 -9 -19 -1
-19 5 0 9 -12 7 -27 -2 -23 -9 -29 -34 -31 -19 -2 -36 3 -44 12 -10 13 -10 16
3 16 9 0 18 -4 22 -10 8 -13 35 -1 35 15 0 8 -10 17 -22 21 l-23 7 23 10 c12
6 22 14 22 19 0 15 -30 21 -45 8 -12 -10 -15 -10 -15 2 0 8 3 18 7 21 12 13
50 7 64 -9z m143 10 c17 -7 22 -34 6 -34 -5 0 -10 5 -10 10 0 17 -37 11 -44
-6 -5 -13 -2 -15 15 -11 30 8 61 -26 50 -55 -11 -30 -60 -37 -78 -12 -18 24
-16 65 3 92 16 23 30 27 58 16z m2865 -12 c5 -10 6 -24 1 -32 -5 -7 -3 -21 3
-31 8 -13 7 -21 -2 -33 -15 -18 -66 -22 -76 -5 -11 16 1 22 23 10 15 -8 23 -7
31 3 9 11 7 17 -9 29 -18 12 -18 15 -5 20 8 4 15 13 15 22 0 18 -36 20 -43 3
-2 -7 -8 -10 -12 -6 -13 12 15 38 41 38 13 0 28 -8 33 -18z m-5842 -3 c6 -6 9
-28 5 -51 -3 -28 -1 -43 9 -49 10 -7 7 -9 -11 -7 -21 3 -26 9 -31 48 -9 63 2
85 28 59z m-403 -25 c27 -27 20 -44 -19 -44 -19 0 -35 -4 -35 -9 0 -14 27 -20
39 -8 13 13 26 3 16 -12 -3 -6 -20 -11 -36 -11 -22 0 -32 6 -38 23 -21 55 34
101 73 61z m154 3 c18 -12 16 -87 -3 -87 -11 0 -15 11 -15 41 0 52 -24 48 -28
-4 -4 -50 -22 -47 -22 3 0 29 -4 40 -15 40 -11 0 -15 -11 -15 -40 0 -29 -4
-40 -15 -40 -11 0 -15 12 -15 49 l0 48 58 -1 c31 -1 63 -5 70 -9z m100 1 c7
-7 12 -20 12 -30 0 -14 -8 -18 -37 -18 -35 0 -36 -1 -21 -17 13 -13 20 -14 31
-5 15 12 30 5 21 -9 -8 -13 -58 -11 -72 3 -7 7 -12 22 -12 34 0 43 50 70 78
42z m100 -6 c3 -9 -3 -11 -22 -6 -16 4 -26 2 -26 -5 0 -6 6 -11 14 -11 8 0 22
-7 31 -16 12 -12 13 -19 4 -30 -16 -19 -69 -18 -69 1 0 17 16 20 25 5 4 -6 11
-8 16 -5 16 11 10 24 -13 27 -26 3 -37 36 -16 49 18 12 50 7 56 -9z m150 6 c7
-7 12 -20 12 -30 0 -14 -8 -18 -37 -18 -35 0 -36 -1 -21 -17 13 -13 20 -14 31
-5 15 12 30 5 21 -9 -8 -13 -58 -11 -72 3 -7 7 -12 22 -12 34 0 43 50 70 78
42z m82 2 c0 -4 -7 -10 -15 -14 -9 -3 -15 -19 -15 -41 0 -19 -4 -35 -10 -35
-5 0 -10 22 -10 49 0 45 2 49 25 49 14 0 25 -4 25 -8z m2710 -80 c0 -5 -7 -10
-15 -10 -8 0 -15 5 -15 10 0 6 7 10 15 10 8 0 15 -4 15 -10z m7105 -655 c25
-24 25 -27 25 -200 0 -173 0 -176 -25 -200 l-24 -25 -271 0 -271 0 -24 25
c-25 24 -25 27 -25 200 0 173 0 176 25 200 l24 25 271 0 271 0 24 -25z m552
-105 c3 -13 14 -20 29 -20 25 0 31 -9 14 -26 -5 -5 -10 -43 -12 -84 l-3 -75
-80 0 -80 0 -3 75 c-2 41 -7 79 -12 84 -17 17 -11 26 14 26 15 0 26 7 29 20 4
16 14 20 52 20 38 0 48 -4 52 -20z m-12487 -51 c8 -15 8 -24 0 -34 -7 -9 -8
-15 0 -20 16 -10 12 -42 -6 -49 -25 -9 -62 -7 -69 5 -10 16 1 22 22 11 10 -5
24 -7 31 -5 20 7 14 31 -10 39 -19 6 -19 7 -5 16 20 11 23 38 4 38 -7 0 -18
-5 -25 -12 -17 -17 -28 -2 -12 17 18 22 57 19 70 -6z m1430 6 c7 -9 10 -19 6
-22 -4 -4 -11 -1 -15 6 -10 15 -43 11 -48 -6 -2 -6 12 -16 32 -23 31 -10 36
-16 33 -38 -3 -24 -7 -27 -43 -27 -31 0 -41 4 -43 19 -4 17 -2 17 18 3 24 -16
50 -13 50 7 0 7 -16 18 -35 25 -36 13 -45 37 -23 59 17 17 53 15 68 -3z m831
-1 c10 -12 10 -20 1 -35 -8 -13 -9 -19 -1 -19 5 0 9 -12 7 -27 -2 -23 -9 -29
-34 -31 -19 -2 -36 3 -44 12 -10 13 -10 16 3 16 9 0 18 -4 22 -10 8 -13 35 -1
35 15 0 8 -10 17 -22 21 l-23 7 23 10 c12 6 22 14 22 19 0 15 -30 21 -45 8
-12 -10 -15 -10 -15 2 0 8 3 18 7 21 12 13 50 7 64 -9z m2510 0 c10 -12 10
-20 1 -35 -8 -13 -9 -19 -1 -19 5 0 9 -12 7 -27 -2 -23 -9 -29 -34 -31 -19 -2
-36 3 -44 12 -10 13 -10 16 3 16 9 0 18 -4 22 -10 8 -13 35 -1 35 15 0 8 -10
17 -22 21 l-23 7 23 10 c12 6 22 14 22 19 0 15 -30 21 -45 8 -12 -10 -15 -10
-15 2 0 8 3 18 7 21 12 13 50 7 64 -9z m159 6 c0 -22 -55 -120 -67 -120 -9 0
-6 15 12 50 14 27 25 52 25 55 0 3 -13 5 -30 5 -16 0 -30 5 -30 10 0 6 20 10
45 10 25 0 45 -4 45 -10z m2834 4 c22 -9 20 -46 -5 -78 -20 -26 -20 -26 0 -26
11 0 23 -4 26 -10 4 -6 -12 -10 -39 -10 -25 0 -46 3 -46 6 0 4 14 22 30 41 17
18 30 40 30 48 0 18 -21 20 -38 3 -17 -17 -28 -2 -12 17 13 16 29 19 54 9z
m-5827 -15 c6 -6 9 -28 5 -51 -3 -28 -1 -43 9 -49 10 -7 7 -9 -11 -7 -21 3
-26 9 -31 48 -9 63 2 85 28 59z m-403 -25 c27 -27 20 -44 -19 -44 -19 0 -35
-4 -35 -9 0 -14 27 -20 39 -8 13 13 26 3 16 -12 -3 -6 -20 -11 -36 -11 -22 0
-32 6 -38 23 -21 55 34 101 73 61z m154 3 c18 -12 16 -87 -3 -87 -11 0 -15 11
-15 41 0 52 -24 48 -28 -4 -4 -50 -22 -47 -22 3 0 29 -4 40 -15 40 -11 0 -15
-11 -15 -40 0 -29 -4 -40 -15 -40 -11 0 -15 12 -15 49 l0 48 58 -1 c31 -1 63
-5 70 -9z m100 1 c7 -7 12 -20 12 -30 0 -14 -8 -18 -37 -18 -35 0 -36 -1 -21
-17 13 -13 20 -14 31 -5 15 12 30 5 21 -9 -8 -13 -58 -11 -72 3 -7 7 -12 22
-12 34 0 43 50 70 78 42z m100 -6 c3 -9 -3 -11 -22 -6 -16 4 -26 2 -26 -5 0
-6 6 -11 14 -11 8 0 22 -7 31 -16 12 -12 13 -19 4 -30 -16 -19 -69 -18 -69 1
0 17 16 20 25 5 4 -6 11 -8 16 -5 16 11 10 24 -13 27 -26 3 -37 36 -16 49 18
12 50 7 56 -9z m150 6 c7 -7 12 -20 12 -30 0 -14 -8 -18 -37 -18 -35 0 -36 -1
-21 -17 13 -13 20 -14 31 -5 15 12 30 5 21 -9 -8 -13 -58 -11 -72 3 -7 7 -12
22 -12 34 0 43 50 70 78 42z m82 2 c0 -4 -7 -10 -15 -14 -9 -3 -15 -19 -15
-41 0 -19 -4 -35 -10 -35 -5 0 -10 22 -10 49 0 45 2 49 25 49 14 0 25 -4 25
-8z m2710 -80 c0 -5 -7 -10 -15 -10 -8 0 -15 5 -15 10 0 6 7 10 15 10 8 0 15
-4 15 -10z m8400 -815 c0 -60 -3 -75 -15 -75 -12 0 -15 13 -15 61 0 54 -2 60
-15 49 -12 -10 -15 -10 -15 3 0 9 8 21 18 26 37 22 42 14 42 -64z m390 0 c0
-60 -3 -75 -15 -75 -12 0 -15 13 -15 61 0 54 -2 60 -15 49 -12 -10 -15 -10
-15 3 0 9 8 21 18 26 37 22 42 14 42 -64z m333 38 c-27 -4 -33 -9 -33 -29 0
-20 5 -24 33 -26 l32 -1 -32 -4 c-26 -3 -33 -9 -36 -31 -2 -15 -5 1 -6 36 l-1
62 38 -2 c36 -1 36 -1 5 -5z m1127 3 c0 -3 -4 -8 -10 -11 -5 -3 -10 -1 -10 4
0 6 5 11 10 11 6 0 10 -2 10 -4z m67 -63 c-2 -16 -4 -5 -4 22 0 28 2 40 4 28
2 -13 2 -35 0 -50z m262 29 c-12 -5 -11 -69 1 -75 6 -3 5 -4 -2 -3 -7 1 -15
21 -18 43 -8 51 -3 66 15 50 7 -7 9 -13 4 -15z m-1015 0 c3 -5 -8 -6 -25 -4
-16 2 -29 6 -29 8 0 8 49 4 54 -4z m113 -59 c-2 -16 -4 -5 -4 22 0 28 2 40 4
28 2 -13 2 -35 0 -50z m49 47 c0 -12 -4 -16 -9 -11 -5 5 -6 14 -3 20 10 15 12
14 12 -9z m664 16 c0 -2 -7 -7 -16 -10 -8 -3 -12 -2 -9 4 6 10 25 14 25 6z
m110 -31 c0 -12 -19 -12 -23 0 -4 9 -1 12 9 8 7 -3 14 -7 14 -8z m-961 -54
c-6 -2 -18 4 -27 13 -15 15 -15 15 10 4 15 -7 23 -15 17 -17z m-224 9 c-3 -5
-14 -10 -23 -9 -14 0 -13 2 3 9 27 11 27 11 20 0z m85 6 c0 -3 -4 -8 -10 -11
-5 -3 -10 -1 -10 4 0 6 5 11 10 11 6 0 10 -2 10 -4z m365 -6 c-3 -5 -14 -10
-23 -9 -14 0 -13 2 3 9 27 11 27 11 20 0z m555 0 c0 -5 -2 -10 -4 -10 -3 0 -8
5 -11 10 -3 6 -1 10 4 10 6 0 11 -4 11 -10z m95 0 c-3 -5 -14 -10 -23 -9 -14
0 -13 2 3 9 27 11 27 11 20 0z"/>
<path d="M1770 4964 c0 -43 1 -45 26 -42 37 4 51 29 36 62 -8 18 -19 26 -37
26 -23 0 -25 -4 -25 -46z"/>
<path d="M6630 4985 c0 -20 4 -26 18 -23 9 2 17 12 17 23 0 11 -8 21 -17 23
-14 3 -18 -3 -18 -23z"/>
<path d="M6747 4971 c-3 -14 0 -21 9 -21 16 0 18 9 5 28 -6 10 -10 9 -14 -7z"/>
<path d="M9807 4973 c-13 -12 -7 -53 7 -53 20 0 29 16 21 40 -6 20 -17 25 -28
13z"/>
<path d="M13157 4975 c-8 -20 -4 -29 11 -24 5 2 6 13 2 23 -6 19 -7 19 -13 1z"/>
<path d="M3285 4930 c-3 -5 1 -10 9 -10 9 0 16 5 16 10 0 6 -4 10 -9 10 -6 0
-13 -4 -16 -10z"/>
<path d="M3550 4970 c0 -5 7 -10 16 -10 8 0 12 5 9 10 -3 6 -10 10 -16 10 -5
0 -9 -4 -9 -10z"/>
<path d="M9705 4970 c-3 -5 1 -10 9 -10 9 0 16 5 16 10 0 6 -4 10 -9 10 -6 0
-13 -4 -16 -10z"/>
<path d="M13476 4961 c-9 -14 4 -41 20 -41 8 0 14 10 14 25 0 25 -23 35 -34
16z"/>
<path d="M13130 4400 c-18 -18 -20 -33 -20 -195 0 -162 2 -177 20 -195 19 -19
33 -20 290 -20 257 0 271 1 290 20 18 18 20 33 20 195 0 162 -2 177 -20 195
-19 19 -33 20 -290 20 -257 0 -271 -1 -290 -20z m230 -140 c0 -5 -13 -10 -30
-10 -23 0 -30 -4 -30 -20 0 -15 7 -20 25 -20 14 0 25 -4 25 -10 0 -5 -11 -10
-25 -10 -16 0 -25 -6 -25 -15 0 -10 10 -15 30 -15 17 0 30 -4 30 -10 0 -5 -20
-10 -45 -10 l-45 0 0 65 0 65 45 0 c25 0 45 -4 45 -10z m100 -55 l0 -65 -33 0
c-40 0 -57 15 -57 51 0 32 23 53 50 46 15 -4 20 0 20 14 0 10 5 19 10 19 6 0
10 -28 10 -65z m50 55 c0 -5 -7 -10 -15 -10 -8 0 -15 5 -15 10 0 6 7 10 15 10
8 0 15 -4 15 -10z m48 -17 c12 -12 13 -18 4 -21 -14 -4 -17 -62 -2 -62 6 0 10
-4 10 -10 0 -5 -9 -10 -20 -10 -17 0 -20 7 -20 40 0 22 -4 40 -10 40 -5 0 -10
-18 -10 -40 0 -29 -4 -40 -15 -40 -11 0 -15 12 -15 50 0 47 2 50 25 50 14 0
25 5 25 10 0 14 9 12 28 -7z"/>
<path d="M13407 4213 c-13 -12 -7 -53 7 -53 20 0 29 16 21 40 -6 20 -17 25
-28 13z"/>
<path d="M14190 4290 c0 -5 11 -10 25 -10 14 0 25 5 25 10 0 6 -11 10 -25 10
-14 0 -25 -4 -25 -10z"/>
<path d="M14152 4183 l3 -68 60 0 60 0 3 68 3 67 -66 0 -66 0 3 -67z m56 -3
c-5 -49 -28 -51 -28 -2 0 21 3 42 7 46 13 12 24 -12 21 -44z m42 -1 c0 -28 -4
-39 -12 -37 -14 5 -23 51 -14 74 10 27 26 4 26 -37z"/>
<path d="M9510 4200 c-9 -16 -8 -20 5 -20 8 0 15 9 15 20 0 11 -2 20 -5 20 -2
0 -9 -9 -15 -20z"/>
<path d="M3265 4210 c-3 -5 3 -10 14 -10 12 0 21 5 21 10 0 6 -6 10 -14 10 -8
0 -18 -4 -21 -10z"/>
<path d="M3515 4210 c-4 -6 5 -10 20 -10 15 0 24 4 20 10 -3 6 -12 10 -20 10
-8 0 -17 -4 -20 -10z"/>
<path d="M3765 4210 c-4 -6 5 -10 20 -10 15 0 24 4 20 10 -3 6 -12 10 -20 10
-8 0 -17 -4 -20 -10z"/>
<path d="M13130 3490 c-18 -18 -20 -33 -20 -195 0 -162 2 -177 20 -195 19 -19
33 -20 290 -20 257 0 271 1 290 20 18 18 20 33 20 195 0 162 -2 177 -20 195
-19 19 -33 20 -290 20 -257 0 -271 -1 -290 -20z m230 -140 c0 -5 -13 -10 -30
-10 -23 0 -30 -4 -30 -20 0 -15 7 -20 25 -20 14 0 25 -4 25 -10 0 -5 -11 -10
-25 -10 -16 0 -25 -6 -25 -15 0 -10 10 -15 30 -15 17 0 30 -4 30 -10 0 -5 -20
-10 -45 -10 l-45 0 0 65 0 65 45 0 c25 0 45 -4 45 -10z m100 -55 l0 -65 -33 0
c-40 0 -57 15 -57 51 0 32 23 53 50 46 15 -4 20 0 20 14 0 10 5 19 10 19 6 0
10 -28 10 -65z m50 55 c0 -5 -7 -10 -15 -10 -8 0 -15 5 -15 10 0 6 7 10 15 10
8 0 15 -4 15 -10z m48 -17 c12 -12 13 -18 4 -21 -14 -4 -17 -62 -2 -62 6 0 10
-4 10 -10 0 -5 -9 -10 -20 -10 -17 0 -20 7 -20 40 0 22 -4 40 -10 40 -5 0 -10
-18 -10 -40 0 -29 -4 -40 -15 -40 -11 0 -15 12 -15 50 0 47 2 50 25 50 14 0
25 5 25 10 0 14 9 12 28 -7z"/>
<path d="M13407 3303 c-13 -12 -7 -53 7 -53 20 0 29 16 21 40 -6 20 -17 25
-28 13z"/>
<path d="M14190 3380 c0 -5 11 -10 25 -10 14 0 25 5 25 10 0 6 -11 10 -25 10
-14 0 -25 -4 -25 -10z"/>
<path d="M14152 3273 l3 -68 60 0 60 0 3 68 3 67 -66 0 -66 0 3 -67z m56 -3
c-5 -49 -28 -51 -28 -2 0 21 3 42 7 46 13 12 24 -12 21 -44z m42 -1 c0 -28 -4
-39 -12 -37 -14 5 -23 51 -14 74 10 27 26 4 26 -37z"/>
<path d="M6654 3286 c-9 -24 3 -47 21 -40 18 7 16 45 -2 52 -7 2 -16 -3 -19
-12z"/>
<path d="M3265 3300 c-3 -5 3 -10 14 -10 12 0 21 5 21 10 0 6 -6 10 -14 10 -8
0 -18 -4 -21 -10z"/>
<path d="M3515 3300 c-4 -6 5 -10 20 -10 15 0 24 4 20 10 -3 6 -12 10 -20 10
-8 0 -17 -4 -20 -10z"/>
<path d="M3765 3300 c-4 -6 5 -10 20 -10 15 0 24 4 20 10 -3 6 -12 10 -20 10
-8 0 -17 -4 -20 -10z"/>
<path d="M13130 2580 c-18 -18 -20 -33 -20 -195 0 -162 2 -177 20 -195 19 -19
33 -20 290 -20 257 0 271 1 290 20 18 18 20 33 20 195 0 162 -2 177 -20 195
-19 19 -33 20 -290 20 -257 0 -271 -1 -290 -20z m230 -140 c0 -5 -13 -10 -30
-10 -23 0 -30 -4 -30 -20 0 -15 7 -20 25 -20 14 0 25 -4 25 -10 0 -5 -11 -10
-25 -10 -16 0 -25 -6 -25 -15 0 -10 10 -15 30 -15 17 0 30 -4 30 -10 0 -5 -20
-10 -45 -10 l-45 0 0 65 0 65 45 0 c25 0 45 -4 45 -10z m100 -55 l0 -65 -33 0
c-40 0 -57 15 -57 51 0 32 23 53 50 46 15 -4 20 0 20 14 0 10 5 19 10 19 6 0
10 -28 10 -65z m50 55 c0 -5 -7 -10 -15 -10 -8 0 -15 5 -15 10 0 6 7 10 15 10
8 0 15 -4 15 -10z m48 -17 c12 -12 13 -18 4 -21 -14 -4 -17 -62 -2 -62 6 0 10
-4 10 -10 0 -5 -9 -10 -20 -10 -17 0 -20 7 -20 40 0 22 -4 40 -10 40 -5 0 -10
-18 -10 -40 0 -29 -4 -40 -15 -40 -11 0 -15 12 -15 50 0 47 2 50 25 50 14 0
25 5 25 10 0 14 9 12 28 -7z"/>
<path d="M13407 2393 c-13 -12 -7 -53 7 -53 20 0 29 16 21 40 -6 20 -17 25
-28 13z"/>
<path d="M14190 2470 c0 -5 11 -10 25 -10 14 0 25 5 25 10 0 6 -11 10 -25 10
-14 0 -25 -4 -25 -10z"/>
<path d="M14152 2363 l3 -68 60 0 60 0 3 68 3 67 -66 0 -66 0 3 -67z m56 -3
c-5 -49 -28 -51 -28 -2 0 21 3 42 7 46 13 12 24 -12 21 -44z m42 -1 c0 -28 -4
-39 -12 -37 -14 5 -23 51 -14 74 10 27 26 4 26 -37z"/>
<path d="M3265 2390 c-3 -5 3 -10 14 -10 12 0 21 5 21 10 0 6 -6 10 -14 10 -8
0 -18 -4 -21 -10z"/>
<path d="M3515 2390 c-4 -6 5 -10 20 -10 15 0 24 4 20 10 -3 6 -12 10 -20 10
-8 0 -17 -4 -20 -10z"/>
<path d="M3765 2390 c-4 -6 5 -10 20 -10 15 0 24 4 20 10 -3 6 -12 10 -20 10
-8 0 -17 -4 -20 -10z"/>
<path d="M3865 461 c-3 -5 -1 -12 5 -16 12 -7 30 2 30 16 0 12 -27 12 -35 0z"/>
<path d="M3862 393 c2 -10 10 -18 18 -18 8 0 16 8 18 18 2 12 -3 17 -18 17
-15 0 -20 -5 -18 -17z"/>
<path d="M2970 450 c0 -26 3 -30 29 -30 32 0 48 24 30 46 -6 8 -22 14 -35 14
-20 0 -24 -5 -24 -30z"/>
<path d="M1860 407 c0 -36 17 -51 46 -40 10 4 14 16 12 37 -2 25 -8 32 -30 34
-26 3 -28 1 -28 -31z"/>
<path d="M2377 434 c-12 -12 -8 -51 7 -63 24 -20 58 4 54 37 -2 20 -9 28 -28
30 -14 2 -29 0 -33 -4z"/>
</g>
</svg>
